<svg width="160" height="47" viewBox="0 0 160 47" fill="none" xmlns="http://www.w3.org/2000/svg">
<path d="M159.5 21C159.5 23.6255 157.464 26.2576 153.45 28.7493C149.462 31.2243 143.658 33.4714 136.442 35.3656C122.017 39.1522 102.061 41.5 80 41.5C57.9387 41.5 37.9834 39.1522 23.5584 35.3656C16.3422 33.4714 10.5384 31.2243 6.55046 28.7493C2.53559 26.2576 0.5 23.6255 0.5 21C0.5 18.3745 2.53559 15.7424 6.55046 13.2507C10.5384 10.7757 16.3422 8.52862 23.5584 6.63437C37.9834 2.84782 57.9387 0.5 80 0.5C102.061 0.5 122.017 2.84782 136.442 6.63437C143.658 8.52862 149.462 10.7757 153.45 13.2507C157.464 15.7424 159.5 18.3745 159.5 21Z" stroke="#162345"/>
<path d="M77 38L81 42L77 46" stroke="#162345" stroke-linecap="round" stroke-linejoin="round"/>
</svg>
